<?xml version="1.0" encoding="UTF-8" standalone="no"?>
<svg
   id="svg"
   width="400.45947"
   height="381.9516"
   viewBox="0 0 400.45947 381.9516"
   version="1.1"
   sodipodi:docname="logo.svg"
   inkscape:version="1.1.1 (3bf5ae0d25, 2021-09-20)"
   xmlns:inkscape="http://www.inkscape.org/namespaces/inkscape"
   xmlns:sodipodi="http://sodipodi.sourceforge.net/DTD/sodipodi-0.dtd"
   xmlns="http://www.w3.org/2000/svg"
   xmlns:svg="http://www.w3.org/2000/svg">
  <defs
     id="defs7" />
  <sodipodi:namedview
     id="namedview5"
     pagecolor="#ffffff"
     bordercolor="#666666"
     borderopacity="1.0"
     inkscape:pageshadow="2"
     inkscape:pageopacity="0.0"
     inkscape:pagecheckerboard="0"
     showgrid="false"
     inkscape:zoom="1.0753889"
     inkscape:cx="203.1823"
     inkscape:cy="245.02763"
     inkscape:window-width="1920"
     inkscape:window-height="991"
     inkscape:window-x="-9"
     inkscape:window-y="-9"
     inkscape:window-maximized="1"
     inkscape:current-layer="svgg"
     fit-margin-top="0"
     fit-margin-left="0"
     fit-margin-right="0"
     fit-margin-bottom="0" />
  <g
     id="svgg"
     transform="translate(0.22973758,-0.1185727)">
    <path
       id="path0"
       d="m 330.3418,0.12890625 c -3.4825,-0.045125 -7.6458,0.0559844 -10.0293,0.33398437 -1.075,0.125 -7.05025,0.62623438 -13.28125,1.11523438 -6.23,0.49 -18.1835,1.7602656 -26.5625,2.8222656 -8.379,1.062 -18.223,2.2467659 -21.875,2.6347656 -9.327,0.9920002 -35.49325,6.4727658 -50.78125,10.6347658 -57.977,15.786 -88.36031,41.037219 -86.57031,71.949219 0.978,16.894999 12.98745,26.564079 51.02343,41.080079 23.738,9.06 28.64394,11.09722 37.21094,15.44922 27.865,14.156 35.84436,34.51431 20.06836,51.19531 -7.239,7.654 -8.19061,7.75141 -24.97461,2.56641 -5.436,-1.679 -11.41125,-3.36319 -13.28125,-3.74219 -1.869,-0.379 -7.58894,-1.61981 -12.71094,-2.75781 -20.57999,-4.57 -31.70312,-1.73683 -31.70312,8.07617 0,16.111 35.40963,21.72215 74.39062,11.78515 6.65901,-1.697 10.98057,-2.33398 15.85157,-2.33398 11.643,0 26.87875,-4.22855 35.34375,-9.81055 3.605,-2.377 5.78,-5.15423 3.125,-3.99023 -7.339,3.219 -14.1358,5.33303 -20.3418,6.33203 -7.813,1.257 -11.3682,1.50467 -9.1582,0.63867 3.034,-1.19 11.6312,-8.24892 13.9082,-11.41992 10.267,-14.296 3.77336,-29.21778 -17.80664,-40.92578 -6.213,-3.37 -25.17741,-11.91797 -26.44141,-11.91797 -0.413,0 -4.45151,-1.58163 -8.97851,-3.51563 -4.527,-1.93297 -8.59406,-3.51562 -9.03906,-3.51562 -0.445,-0.001 -4.15138,-1.58263 -8.23438,-3.51562 -4.083,-1.934 -7.63548,-3.51563 -7.89648,-3.51563 -0.261,0 -2.64393,-1.2788 -5.29493,-2.8418 -2.65,-1.562 -6.04873,-3.5319 -7.55273,-4.3789 -11.65,-6.556 -20.12453,-17.5721 -22.01953,-28.621097 -4.228,-24.657 23.09139,-48.323422 76.31641,-66.107422 8.12898,-2.716 30.7655,-8.988281 32.4375,-8.988281 0.79899,0 5.60468,-1.007281 10.67968,-2.238281 5.074,-1.231 12.56544,-2.8098127 16.64844,-3.5078128 15.234,-2.6079997 37.36387,-5.9854218 44.92188,-6.8574218 4.297,-0.496 8.14668,-1.2023125 8.55468,-1.57031252 0.3375,-0.3045 -2.46476,-0.49589063 -5.94726,-0.54101563 z M 232.82422,65.140625 c -2.29545,0.0485 -4.32622,0.205172 -5.85547,0.482422 -19.439,3.523 -29.31325,15.411672 -25.03125,30.138672 2.793,9.609001 15.74772,18.133451 36.76172,24.189451 45.49,13.109 62.42567,24.688 68.01367,46.5 7.112,27.759 -32.8813,65.377 -76.2793,71.75 -2.773,0.407 -8.20623,1.28799 -12.07421,1.95899 -49.93901,8.655 -99.67818,-3.10093 -108.07618,-25.54493 -7.484,-20.002 8.35991,-37.42546 39.87891,-43.85546 13.277,-2.709 41.5267,-1.28921 51.5957,2.59179 4.271,1.646 2.27325,-1.13081 -2.34375,-3.25781 -18.93,-8.72 -48.37276,-10.07192 -71.75976,-3.29492 -22.337,6.473 -34.329941,20.16555 -34.210941,39.06055 0.24,38.09299 51.297771,55.01659 127.259761,42.18359 20.62102,-3.483 44.10482,-10.6513 55.38282,-16.9043 0.812,-0.45 3.80062,-2.08486 6.64062,-3.63086 11.669,-6.351 27.93711,-19.73842 32.78711,-26.98242 5.443,-8.128 6.54769,-10.16014 8.42969,-15.49414 8.068,-22.879 -1.91719,-42.91969 -27.86719,-55.92969 -7.196,-3.607 -24.05303,-10.35156 -25.87305,-10.35156 -0.62099,0 -5.84437,-1.58162 -11.60937,-3.51562 -5.765,-1.93301 -10.94381,-3.51563 -11.50781,-3.51563 -2.498,0 -21.48583,-8.2627 -24.92383,-10.8457 -13.569,-10.195009 -4.27952,-27.955534 15.89648,-30.394534 17.972,-2.173 28.0806,2.176484 39.5586,17.021484 4.744,6.135 10.66406,5.839797 10.66406,-0.533203 0,-4.344 -15.20219,-15.037406 -24.61719,-17.316406 -1.715,-0.415 -5.9302,-1.503922 -9.36718,-2.419922 -5.3115,-1.41375 -14.5863,-2.235344 -21.47266,-2.089844 z M 172.62305,197.63281 c 2.80484,-0.0212 6.27573,0.36658 10.33398,1.20508 5.37,1.11 16.13959,4.07858 26.80859,7.39258 4.672,1.451 4.67974,1.45922 2.42774,2.32422 -15.092,5.791 -39.08605,5.30284 -44.74805,-0.91016 -5.66175,-6.21375 -3.23679,-9.9482 5.17774,-10.01172 z M 22.277344,214.93359 c -1.503,-0.0486 -2.282531,0.33772 -3.082032,1.13672 -2.329,2.33 -1.441437,4.92744 3.851563,11.27344 2.793,3.348 5.078125,6.34139 5.078125,6.65039 0,0.309 1.180094,2.19159 2.621094,4.18359 3.969,5.482 9.561844,17.9961 11.839844,26.4961 1.118999,4.176 2.21264,8.20698 2.43164,8.95898 0.355,1.214 -0.242469,1.36719 -5.355469,1.36719 -7.839,0 -7.630859,-0.3975 -7.630859,14.5625 v 12.68555 l -14.726562,0.24414 c -11.0460015,0.182 -15.0486255,0.50945 -16.0156255,1.31445 -2.164,1.799 -1.94934385,76.25302 0.2226563,77.41602 2.113,1.13 394.8635612,1.13 396.9765612,0 2.172,-1.163 2.38666,-75.61702 0.22266,-77.41602 -0.967,-0.805 -4.96963,-1.13245 -16.01563,-1.31445 l -14.72656,-0.24414 V 289.5625 c 0,-14.96 0.20814,-14.5625 -7.63086,-14.5625 -5.113,0 -5.71047,-0.15319 -5.35547,-1.36719 0.219,-0.752 1.31264,-4.78298 2.43164,-8.95898 2.278,-8.5 7.87085,-21.0141 11.83985,-26.4961 1.441,-1.992 2.63248,-3.92487 2.64648,-4.29687 0.014,-0.372 2.29727,-3.31511 5.07227,-6.53711 11.553,-13.418 2.27349,-16.21527 -20.14454,-6.07227 -23.031,10.421 -44.31303,31.94921 -49.83203,50.40821 L 306.00391,275 200.07227,274.992 94.140625,274.982 91.978516,269.21247 c -8.508,-22.705 -36.132485,-46.12873 -62.271485,-52.80273 -3.6995,-0.9445 -5.926687,-1.42794 -7.429687,-1.47657 z" />
  </g>
</svg>
