<?xml version="1.0" encoding="UTF-8" standalone="no"?>
<!-- Uploaded to: SVG Repo, www.svgrepo.com, Generator: SVG Repo Mixer Tools -->

<svg
   fill="#000000"
   version="1.1"
   id="Capa_1"
   width="80mm"
   height="80mm"
   viewBox="0 0 12.094866 12.094867"
   xml:space="preserve"
   sodipodi:docname="papers.svg"
   inkscape:version="1.1.1 (3bf5ae0d25, 2021-09-20)"
   xmlns:inkscape="http://www.inkscape.org/namespaces/inkscape"
   xmlns:sodipodi="http://sodipodi.sourceforge.net/DTD/sodipodi-0.dtd"
   xmlns="http://www.w3.org/2000/svg"
   xmlns:svg="http://www.w3.org/2000/svg"><defs
   id="defs900" /><sodipodi:namedview
   id="namedview898"
   pagecolor="#ffffff"
   bordercolor="#666666"
   borderopacity="1.0"
   inkscape:pageshadow="2"
   inkscape:pageopacity="0.0"
   inkscape:pagecheckerboard="0"
   showgrid="false"
   inkscape:zoom="0.483125"
   inkscape:cx="460.54334"
   inkscape:cy="344.63131"
   inkscape:window-width="1920"
   inkscape:window-height="991"
   inkscape:window-x="-9"
   inkscape:window-y="-9"
   inkscape:window-maximized="1"
   inkscape:current-layer="g895"
   fit-margin-top="0"
   fit-margin-left="0"
   fit-margin-right="0"
   fit-margin-bottom="0"
   width="80px"
   units="mm"
   inkscape:document-units="mm" />
<g
   id="g895"
   transform="translate(-0.95088783,-0.92785737)">
	<g
   id="g893"
   transform="matrix(0.5573671,0,0,0.5573671,-5.5232097,-4.8135811)"
   style="fill:#161650">
		
		
		
		
		
		
		
		
		
		
		<path
   d="M 26.507,11.279 C 25.882,10.653 25.034,10.301 24.15,10.301 h -8.873 c -0.781,0 -1.415,0.633 -1.415,1.415 v 18.87 c 0,0.781 0.633,1.415 1.415,1.415 h 14.376 c 0.781,0 1.416,-0.634 1.416,-1.415 V 17.229 c 0,-0.884 -0.351,-1.73 -0.975,-2.354 z m -0.261,2.494 v 0.006 l 1.271,1.258 -1.271,-0.002 z m 2.85,3.219 V 30.027 H 15.836 V 12.273 h 8.478 l -0.012,3.333 c -0.001,0.366 0.145,0.717 0.4,0.976 0.259,0.259 0.609,0.405 0.976,0.406 z"
   id="path1043"
   style="fill:#161650" />
		<path
   d="m 18.174,16.438 h 2.711 c 0.54,0 0.978,-0.445 0.978,-0.986 0,-0.539 -0.438,-0.984 -0.978,-0.984 h -2.711 c -0.54,0 -0.978,0.445 -0.978,0.984 10e-4,0.54 0.438,0.986 0.978,0.986 z"
   id="path1040"
   style="fill:#161650" />
		<path
   d="m 26.814,18.191 h -8.64 c -0.54,0 -0.978,0.447 -0.978,0.985 0,0.541 0.438,0.986 0.978,0.986 h 8.64 c 0.541,0 0.979,-0.445 0.979,-0.986 -10e-4,-0.537 -0.438,-0.985 -0.979,-0.985 z"
   id="path1037"
   style="fill:#161650" />
		<path
   d="m 26.814,21.918 h -8.64 c -0.54,0 -0.978,0.447 -0.978,0.986 0,0.539 0.438,0.986 0.978,0.986 h 8.64 c 0.541,0 0.979,-0.447 0.979,-0.986 0,-0.539 -0.438,-0.986 -0.979,-0.986 z"
   id="path1034"
   style="fill:#161650" />
		<path
   d="m 26.814,25.645 h -8.64 c -0.54,0 -0.978,0.445 -0.978,0.986 0,0.539 0.438,0.984 0.978,0.984 h 8.64 c 0.541,0 0.979,-0.445 0.979,-0.984 -10e-4,-0.541 -0.438,-0.986 -0.979,-0.986 z"
   id="path1031"
   style="fill:#161650" />
	</g>
</g>
</svg>
